<?xml version="1.0" encoding="utf-8"?>
<!-- Generator: Adobe Illustrator 28.0.0, SVG Export Plug-In . SVG Version: 6.00 Build 0)  -->
<svg version="1.1" id="Layer_1" xmlns="http://www.w3.org/2000/svg" xmlns:xlink="http://www.w3.org/1999/xlink" x="0px" y="0px"
	 viewBox="0 0 600 220" style="enable-background:new 0 0 600 220;" xml:space="preserve">
<g>
	<path d="M585.2,115.9L585.2,115.9c-4.3-16.1-30.3-16.3-38.9-16.4c-18.5,0.3-38.4,3.4-58.9,9.2c-0.8-16-3-32.6-6.6-49.6
		c-1.8-7.7-6.4-27.3-14.8-36.5c-1.8-2-3.9-3.6-6.4-4.4c-0.9-0.3-1.8-0.4-2.7-0.4h-0.1c-12.9,0.6-19.3,24.1-23,41.8
		c-3,15-4.8,31.1-5.4,48c-0.3,8.8-0.2,17,0.2,24.6c-7.6,4.3-16.1,10.1-20.4,16.4c-1.5,2.2-2.6,4.6-2.8,7.1c-0.1,0.9,0,1.8,0.2,2.8
		l0,0.1c2.4,8.7,15.2,11.8,28.9,12.8c2.8,10.1,9.5,30.4,24.4,30.7h0.1c15.8-0.6,22-23.6,24.2-33c5.4-0.8,10.9-1.7,16.5-2.7
		c23.6-4.6,42.2-10.5,58.3-18.6C565.5,144,588.5,132.1,585.2,115.9L585.2,115.9L585.2,115.9z M427.7,166.6
		c-4.6-0.6-16.6-2.2-18.6-8.8c0,0,0-0.1,0-0.1c-0.3-1.5,0-3,0.7-4.6c1.3-2.7,4.5-6.5,11.9-11.6c2.3-1.5,4.7-2.9,7.1-4.2
		c0.8,10.7,2.2,20.4,4.4,29.6C431.3,166.9,429.5,166.7,427.7,166.6L427.7,166.6L427.7,166.6z M464.8,180.3L464.8,180.3
		c-0.8,1.5-2.2,4.2-3.8,6c-1.2,1.4-3.5,1.5-4.8,0.1c-1.7-1.8-3.9-5.2-6.2-10.8c-0.5-1.2-0.9-2.5-1.4-3.7c0.9,0,1.9,0,2.8,0
		c5.6-0.1,11.4-0.5,17.2-1C467.5,174.1,466.3,177.3,464.8,180.3L464.8,180.3z M473,153.6c-0.8,3.7-1.6,7.2-2.5,10.6
		c-7.6,1.4-15.6,2.4-23.6,2.8c-3.7-11.6-6-23.6-7.5-34.9c12.6-5.5,25.6-9.2,38-12C476.7,131.8,475.2,143,473,153.6z M478.3,107.1
		c0,1.5-0.1,2.9-0.2,4.4c-12.4,3.9-25,8.8-37.7,14.6c-0.5,0.2-1,0.5-1.6,0.8c-0.8-6.8-1.3-13.3-1.7-19.3c-1-21.4-1-46.5,6.9-69.8
		c1.6-4.3,5.9-15.7,12.7-16.1h0.1c1.5,0.1,3,0.7,4.4,1.7c2.4,1.9,5.3,5.8,8.6,14.1C478.2,60.7,478.8,85.7,478.3,107.1L478.3,107.1
		L478.3,107.1z M570.3,121.9c-1.4,2.1-4.2,4.9-9.2,8.4c-20.3,13.7-44.7,21.9-63.7,27.6c-4.1,1.1-8.4,2.3-12.8,3.3
		c2.3-13.5,3.4-28,3.1-43.2c16.2-3.1,31.9-4.8,46.8-5.2c10.5-0.2,19.3,0.1,27.9,2.1l0.1,0c1.6,0.4,4.5,1.2,6.6,2.3
		C570.8,118.1,571.4,120.3,570.3,121.9L570.3,121.9L570.3,121.9z"/>
	<g>
		<path d="M73.4,137.4v-36.2h13.3v36.2c0,15,8.3,22.6,20.9,22.6s20.9-7.6,20.9-22.6v-36.2h13.3v36.2c0,23-13.8,34.9-34.2,34.9
			S73.4,160.6,73.4,137.4L73.4,137.4L73.4,137.4z"/>
		<path d="M147.2,135.4c0-23,17.1-36.1,35.2-36.1c11.2,0,20.8,5,25.8,14V78.8h13.3v56.5c0,22.6-15.4,37-36.9,37
			S147.2,157.2,147.2,135.4L147.2,135.4L147.2,135.4L147.2,135.4z M208.3,135.9c0-14-9.5-24.1-23.7-24.1s-23.9,10.1-23.9,24.1
			s9.6,24.1,23.9,24.1S208.3,149.9,208.3,135.9L208.3,135.9z"/>
		<path d="M227,135.9c0-21.1,15.4-36.5,37.3-36.5s37,15.4,37,36.5v4.9H241c2,12.4,11.2,19.2,23.3,19.2c9,0,15.3-2.8,19.4-8.8h14.7
			c-5.3,12.9-18,21.2-34.1,21.2C242.4,172.3,227,156.9,227,135.9z M287.3,128.8c-2.7-11.1-11.8-17.1-23-17.1s-20.2,6.2-22.9,17.1
			H287.3L287.3,128.8z"/>
		<path d="M306.1,134.5c0-23.2,13.8-35.1,34.2-35.1s34.2,11.8,34.2,35.1v36.1h-13.3v-36.1c0-15-8.3-22.7-20.9-22.7
			s-20.9,7.7-20.9,22.7v36.1h-13.3L306.1,134.5L306.1,134.5z"/>
		<path d="M70.8,170.1H43.4c-15.9,0-28.9-12.9-28.9-28.9V78.8h13.9v62.5c0,8.2,6.7,14.9,14.9,14.9h27.4L70.8,170.1L70.8,170.1
			L70.8,170.1z"/>
	</g>
</g>
</svg>
